<?xml version="1.0" standalone="no"?>
<!DOCTYPE svg PUBLIC "-//W3C//DTD SVG 20010904//EN"
 "http://www.w3.org/TR/2001/REC-SVG-20010904/DTD/svg10.dtd">
<svg version="1.0" xmlns="http://www.w3.org/2000/svg"
 width="300.000000pt" height="300.000000pt" viewBox="0 0 300.000000 300.000000"
 preserveAspectRatio="xMidYMid meet">
<metadata>
Created by potrace 1.11, written by Peter Selinger 2001-2013
</metadata>
<g transform="translate(0.000000,300.000000) scale(0.100000,-0.100000)"
fill="#000000" stroke="none">
<path d="M1275 2730 c-347 -67 -627 -254 -825 -549 -59 -88 -139 -265 -155
-341 -2 -8 -8 -35 -15 -60 -16 -58 -16 -62 -25 -145 -8 -79 -9 -225 -1 -270 2
-16 7 -50 11 -75 6 -40 21 -102 40 -166 5 -16 14 -21 33 -19 29 3 121 14 162
20 14 2 54 7 90 10 36 4 72 9 80 10 8 2 42 6 75 9 33 4 71 8 85 11 14 2 52 7
85 10 33 3 74 8 90 10 17 3 107 14 200 25 232 28 229 28 325 40 47 6 98 13
114 16 15 3 49 7 75 9 25 3 55 6 66 9 11 2 43 7 70 10 81 11 179 28 235 41 14
3 35 8 48 11 50 10 134 47 163 71 41 35 37 71 -11 96 -31 16 -53 18 -180 13
-80 -3 -163 -8 -185 -11 -39 -5 -67 -8 -190 -23 -103 -12 -375 -8 -441 7 -158
35 -202 112 -124 220 40 55 106 103 215 155 72 35 169 73 205 81 3 1 30 9 60
18 61 18 268 66 315 73 17 2 41 6 55 9 43 9 74 14 119 20 23 3 55 7 70 9 36 6
96 14 156 21 28 3 73 8 100 12 28 3 62 7 77 8 15 1 30 4 33 7 7 7 -69 114
-135 190 -48 56 -104 109 -194 182 -106 88 -318 182 -494 220 -138 30 -340 32
-477 6z m1004 -320 c68 -36 9 -197 -82 -227 -137 -46 -136 175 1 233 30 12 50
11 81 -6z m-564 -80 c36 -40 14 -130 -47 -191 -56 -55 -148 -36 -148 31 0 61
50 153 94 170 38 16 82 11 101 -10z"/>
<path d="M2494 1959 c-22 -4 -68 -10 -103 -13 -36 -4 -81 -9 -100 -12 -32 -4
-50 -7 -126 -19 -11 -2 -36 -6 -55 -9 -71 -11 -97 -17 -185 -37 -114 -27 -174
-56 -202 -98 -29 -43 -18 -64 45 -85 45 -15 222 -22 292 -12 38 6 99 14 160
22 30 3 62 8 71 9 88 17 330 25 392 14 27 -4 40 -3 43 6 5 12 -23 126 -49 200
l-14 40 -65 0 c-36 0 -83 -3 -104 -6z"/>
<path d="M2724 1359 c-21 -34 -276 -126 -459 -165 -39 -9 -120 -25 -150 -29
-16 -3 -52 -10 -80 -15 -27 -5 -66 -12 -85 -15 -19 -3 -46 -7 -60 -10 -14 -2
-52 -7 -85 -10 -33 -4 -67 -8 -75 -10 -8 -2 -40 -7 -70 -10 -30 -3 -86 -10
-125 -15 -38 -5 -95 -12 -125 -15 -30 -4 -68 -8 -85 -10 -16 -2 -55 -6 -85 -9
-30 -4 -71 -9 -90 -11 -19 -2 -60 -7 -90 -10 -30 -4 -66 -8 -80 -10 -14 -2
-54 -6 -90 -10 -36 -3 -99 -10 -140 -15 -41 -6 -100 -12 -130 -15 -30 -3 -71
-7 -90 -10 -19 -2 -60 -7 -90 -11 -30 -3 -57 -8 -59 -10 -2 -2 35 -70 81 -152
47 -81 90 -164 96 -183 39 -120 0 -235 -103 -299 -18 -11 -88 -39 -156 -61
-151 -50 -155 -52 -137 -67 27 -22 97 -28 308 -26 205 1 505 11 580 18 19 2
76 7 125 11 131 9 140 10 290 31 86 12 256 46 345 69 454 118 809 484 910 940
27 121 29 174 4 134z"/>
</g>
</svg>
